<?xml version="1.0" standalone="no"?>
<!DOCTYPE svg PUBLIC "-//W3C//DTD SVG 20010904//EN"
 "http://www.w3.org/TR/2001/REC-SVG-20010904/DTD/svg10.dtd">
<svg version="1.0" xmlns="http://www.w3.org/2000/svg"
 width="2080.000000pt" height="2080.000000pt" viewBox="0 0 2080.000000 2080.000000"
 preserveAspectRatio="xMidYMid meet">
<metadata>
Created by potrace 1.11, written by Peter Selinger 2001-2013
</metadata>
<g transform="translate(0.000000,2080.000000) scale(0.100000,-0.100000)"
fill="#000000" stroke="none">
<path d="M40 15312 c-6 -2 -10 -99 -10 -276 l0 -272 220 0 c122 1 226 -1 233
-4 9 -4 12 -1018 12 -4640 l0 -4635 785 0 785 0 0 1555 0 1555 560 -1 c525 0
635 -3 710 -19 17 -4 35 -8 40 -9 6 -1 16 -5 22 -9 7 -5 22 -10 34 -12 57 -11
159 -99 244 -210 38 -50 102 -175 108 -211 1 -10 5 -23 9 -29 5 -9 16 -57 44
-185 3 -14 7 -38 9 -55 2 -16 6 -50 10 -75 13 -106 15 -130 20 -215 3 -49 8
-252 10 -450 5 -396 14 -748 19 -810 2 -22 7 -74 10 -115 4 -41 9 -91 12 -110
2 -19 6 -53 9 -75 9 -71 26 -172 40 -235 3 -14 8 -38 10 -55 3 -16 7 -39 10
-50 2 -11 9 -38 14 -60 6 -22 13 -56 16 -75 3 -19 9 -38 14 -43 4 -4 1771 -6
3927 -5 3475 3 3919 5 3920 18 0 8 3 22 7 30 5 13 14 49 22 85 2 6 8 30 16 55
7 25 14 54 16 65 2 11 7 31 13 45 5 14 25 88 45 165 20 77 50 190 66 250 17
61 39 144 50 185 10 41 21 83 24 93 9 31 14 51 26 97 6 25 13 52 16 60 3 8 7
22 9 30 3 18 41 158 59 220 7 25 23 87 36 138 13 50 28 92 33 93 44 4 1969 3
1974 -1 4 -3 9 -12 10 -20 14 -59 43 -172 48 -190 3 -8 5 -16 5 -17 0 -2 5
-17 10 -35 6 -18 12 -42 14 -53 3 -11 30 -115 60 -232 31 -116 58 -221 60
-232 3 -12 7 -30 9 -41 3 -11 7 -24 10 -29 3 -5 12 -37 20 -72 17 -75 44 -178
53 -199 3 -8 7 -24 8 -35 1 -11 4 -27 7 -35 6 -14 38 -136 58 -220 5 -19 18
-71 30 -115 12 -44 22 -86 22 -92 1 -10 612 -13 3020 -13 l3018 0 0 33 c1 70
-1 1293 -2 1304 -1 7 -6 9 -12 6 -13 -8 -2784 -8 -2792 0 -4 3 -7 1490 -8
3304 l-1 3298 -810 0 -810 0 0 -3582 c0 -1969 -3 -3579 -7 -3576 -5 2 -8 13
-8 24 0 11 -4 28 -9 38 -6 10 -12 31 -15 47 -2 16 -5 29 -6 29 -2 0 -11 37
-12 53 -1 6 -4 12 -8 12 -3 0 -6 8 -7 18 -1 10 -13 59 -28 108 -23 76 -60 204
-69 239 -1 6 -7 26 -13 45 -6 19 -15 53 -21 75 -6 22 -21 72 -33 110 -11 39
-23 81 -26 94 -2 13 -9 34 -15 45 -6 12 -11 22 -10 24 3 3 -8 52 -15 72 -3 8
-8 23 -10 33 -1 10 -12 48 -23 85 -12 37 -26 85 -32 107 -6 22 -13 47 -16 55
-7 19 -7 19 -16 60 -4 19 -19 71 -32 115 -41 133 -49 160 -49 165 -1 3 -9 32
-19 65 -10 33 -20 67 -22 75 -6 28 -42 153 -119 420 -43 146 -78 270 -79 275
-1 6 -5 15 -8 21 -4 6 -10 24 -12 40 -3 16 -15 61 -26 99 -20 65 -25 84 -35
125 -2 8 -4 17 -5 20 -1 3 -2 8 -1 13 0 4 -4 7 -10 7 -5 0 -8 4 -5 8 3 5 -6
46 -20 93 -14 46 -34 118 -45 159 -11 41 -23 78 -25 82 -3 4 -7 16 -9 25 -2
10 -13 52 -25 93 -12 41 -28 100 -36 130 -8 30 -20 65 -26 77 -5 11 -7 26 -4
32 4 6 3 11 -2 11 -5 0 -9 6 -10 13 -1 14 -5 30 -27 107 -23 79 -31 106 -53
185 -11 39 -37 126 -57 195 -20 69 -38 133 -40 143 -2 9 -6 21 -9 25 -3 5 -7
19 -10 33 -3 13 -14 56 -26 94 -11 39 -23 79 -26 90 -9 35 -10 39 -24 85 -16
52 -14 45 -24 90 -5 19 -11 39 -14 45 -3 5 -7 16 -8 25 -1 8 -23 87 -49 175
-26 88 -48 167 -50 175 -2 8 -8 27 -14 43 -6 15 -8 27 -5 27 2 0 0 9 -6 21 -7
11 -14 33 -16 47 -3 15 -11 45 -19 67 -7 22 -17 54 -21 70 -4 17 -8 32 -9 35
-1 3 -7 25 -14 50 -7 25 -17 59 -22 75 -10 32 -69 237 -99 345 -10 36 -26 92
-36 125 -9 33 -18 67 -19 75 0 8 -7 25 -13 38 -7 12 -10 22 -6 22 3 0 1 7 -6
15 -7 8 -10 15 -7 15 3 0 1 15 -4 33 -6 17 -12 37 -13 42 -18 67 -28 103 -33
115 -3 8 -7 20 -8 25 -3 10 -18 66 -55 195 -28 103 -88 309 -110 380 -11 36
-20 73 -20 82 0 9 -5 20 -11 23 -6 4 -8 13 -5 21 3 7 1 16 -3 18 -5 3 -12 25
-16 48 -9 48 -8 43 -22 79 l-11 25 -938 0 -938 -1 -13 -45 c-12 -39 -77 -277
-87 -320 -2 -8 -11 -42 -20 -75 -10 -33 -19 -67 -21 -75 -2 -8 -4 -15 -5 -15
-1 0 -8 -25 -15 -55 -7 -30 -23 -89 -34 -130 -12 -41 -24 -83 -26 -93 -2 -10
-7 -27 -10 -37 -3 -10 -8 -27 -10 -37 -2 -10 -8 -33 -14 -51 -5 -18 -10 -35
-10 -37 -1 -3 -1 -6 -2 -7 0 -2 -2 -10 -4 -18 -2 -8 -11 -40 -19 -70 -9 -30
-19 -66 -22 -80 -5 -28 -22 -87 -31 -110 -4 -8 -6 -18 -5 -21 1 -4 -3 -22 -9
-40 -22 -71 -71 -255 -76 -284 -3 -16 -9 -34 -13 -40 -4 -5 -11 -28 -15 -50
-5 -22 -9 -42 -10 -45 -14 -49 -28 -99 -30 -112 -2 -10 -6 -22 -9 -26 -3 -5
-8 -22 -11 -38 -8 -39 -13 -59 -15 -59 -1 0 -3 -7 -5 -15 -4 -16 -12 -48 -20
-80 -3 -11 -7 -29 -9 -40 -3 -11 -7 -24 -10 -28 -3 -5 -7 -19 -10 -33 -3 -13
-42 -157 -86 -319 -45 -162 -83 -305 -83 -317 -1 -13 -4 -23 -7 -23 -4 0 -7
-6 -8 -12 0 -7 -3 -22 -6 -33 -3 -11 -21 -81 -41 -155 -20 -74 -38 -143 -40
-153 -2 -9 -6 -21 -9 -25 -3 -5 -7 -19 -10 -33 -3 -13 -17 -67 -31 -119 -14
-52 -28 -102 -30 -110 -2 -8 -13 -49 -25 -90 -12 -41 -23 -86 -26 -100 -3 -14
-8 -34 -11 -45 -4 -11 -8 -23 -9 -27 -1 -5 -2 -9 -4 -10 -1 -2 -3 -10 -5 -18
-1 -8 -11 -44 -20 -80 -9 -36 -18 -70 -19 -77 -1 -7 -5 -16 -9 -19 -4 -4 -7
-18 -7 -30 0 -13 -5 -26 -10 -29 -6 -4 -8 -10 -6 -13 2 -4 -9 -55 -25 -112
-17 -58 -32 -113 -34 -124 -3 -10 -12 -44 -21 -75 -9 -31 -18 -67 -21 -80 -2
-13 -8 -32 -14 -43 -5 -10 -7 -18 -5 -18 3 0 1 -12 -5 -27 -6 -16 -12 -37 -14
-48 -6 -38 -14 -64 -23 -82 -6 -10 -10 -22 -10 -28 -1 -16 -17 -92 -22 -97 -1
-2 -3 -10 -5 -18 -4 -15 -34 -128 -74 -275 -78 -284 -93 -339 -116 -430 -1 -5
-5 -17 -8 -25 -4 -8 -9 -26 -11 -40 -3 -14 -5 -25 -6 -25 -2 0 -7 -20 -15 -59
-3 -16 -11 -39 -17 -50 -6 -12 -11 -23 -10 -26 4 -11 -11 -70 -17 -70 -4 0 -7
-10 -6 -22 1 -13 -2 -30 -6 -38 -4 -8 -26 -87 -49 -175 -23 -88 -44 -167 -47
-175 -4 -8 -7 -19 -8 -25 -2 -5 -11 -39 -20 -75 -9 -36 -18 -69 -19 -75 -1 -5
-5 -16 -9 -22 -5 -7 -6 -13 -3 -13 3 0 1 -12 -5 -27 -6 -16 -13 -39 -16 -53
-7 -36 -8 -40 -23 -90 -7 -25 -14 -49 -16 -55 -1 -5 -7 -30 -14 -55 -7 -25
-13 -49 -15 -55 -8 -37 -18 -74 -25 -95 -7 -21 -88 -315 -94 -345 -6 -25 -28
-104 -41 -145 -7 -25 -16 -56 -19 -70 -3 -14 -7 -34 -9 -45 -8 -34 -49 -178
-62 -220 l-13 -40 -2 80 c-3 166 -9 716 -9 858 -1 89 -5 146 -10 142 -5 -3
-12 -1 -16 4 -6 10 -37 7 -55 -4 -6 -4 -17 -2 -25 5 -9 7 -15 8 -20 0 -4 -7
-12 -7 -26 0 -13 8 -25 7 -39 0 -14 -8 -20 -8 -20 0 0 7 -6 7 -21 0 -15 -8
-24 -8 -34 0 -9 8 -15 8 -20 0 -4 -7 -12 -7 -26 0 -13 8 -25 7 -39 0 -14 -8
-20 -8 -20 0 0 7 -6 7 -21 0 -15 -8 -24 -8 -34 0 -9 8 -15 8 -20 0 -4 -7 -12
-7 -26 0 -13 8 -25 7 -39 0 -14 -8 -20 -8 -20 0 0 7 -6 7 -21 0 -15 -8 -24 -8
-34 0 -9 8 -15 8 -20 0 -4 -7 -12 -7 -26 0 -13 8 -25 7 -39 0 -14 -8 -20 -8
-20 0 0 7 -6 7 -21 0 -15 -8 -24 -8 -34 0 -9 8 -15 8 -20 0 -4 -7 -12 -7 -26
0 -13 8 -25 7 -39 0 -14 -8 -20 -8 -20 0 0 7 -6 7 -21 0 -15 -8 -24 -8 -34 0
-9 8 -15 8 -20 0 -4 -7 -12 -7 -26 0 -13 8 -25 7 -39 0 -14 -8 -20 -8 -20 0 0
7 -6 7 -21 0 -15 -8 -24 -8 -34 0 -9 8 -15 8 -20 0 -4 -7 -12 -7 -26 0 -13 8
-25 7 -39 0 -14 -8 -20 -8 -20 0 0 7 -6 7 -21 0 -15 -8 -24 -8 -34 0 -9 8 -15
8 -20 0 -4 -7 -12 -7 -26 0 -13 8 -25 7 -40 0 -15 -8 -24 -8 -34 0 -9 8 -15 8
-20 0 -4 -7 -12 -7 -26 0 -14 8 -19 7 -19 -1 0 -9 -3 -9 -14 0 -10 8 -16 9
-21 1 -4 -7 -12 -7 -26 0 -14 8 -19 7 -19 -1 0 -9 -3 -9 -14 0 -10 8 -16 9
-21 1 -4 -7 -12 -7 -26 0 -13 8 -25 7 -40 0 -15 -8 -24 -8 -34 0 -9 8 -15 8
-20 0 -4 -6 -13 -7 -23 -2 -20 10 -33 10 -50 -2 -7 -4 -19 -3 -27 4 -9 7 -15
8 -20 0 -4 -7 -12 -7 -26 0 -14 8 -19 7 -19 -1 0 -9 -3 -9 -14 0 -10 8 -16 9
-21 1 -4 -7 -12 -7 -26 0 -14 8 -19 7 -19 -1 0 -9 -3 -9 -14 0 -10 8 -16 9
-21 1 -4 -7 -12 -7 -26 0 -14 8 -19 7 -19 -1 0 -9 -3 -9 -14 0 -10 8 -16 9
-21 1 -4 -7 -12 -7 -26 0 -13 8 -25 7 -40 0 -15 -8 -24 -8 -34 0 -9 8 -15 8
-20 0 -4 -6 -13 -7 -23 -2 -20 10 -33 10 -50 -2 -7 -4 -19 -3 -27 4 -9 7 -15
8 -20 0 -4 -7 -12 -7 -26 0 -14 8 -19 7 -19 -1 0 -9 -3 -9 -14 0 -10 8 -16 9
-21 1 -4 -7 -12 -7 -26 0 -14 8 -19 7 -19 -1 0 -9 -3 -9 -14 0 -10 8 -16 9
-21 1 -4 -7 -12 -7 -26 0 -14 8 -19 7 -19 -1 0 -9 -3 -9 -14 0 -10 8 -16 9
-21 1 -4 -7 -12 -7 -26 0 -13 8 -25 7 -40 0 -15 -8 -24 -8 -34 0 -9 8 -15 8
-20 0 -4 -6 -13 -7 -23 -2 -20 10 -33 10 -50 -2 -7 -4 -19 -3 -27 4 -9 7 -15
8 -20 0 -4 -7 -12 -7 -26 0 -14 8 -19 7 -19 -1 0 -9 -3 -9 -14 0 -10 8 -16 9
-21 1 -4 -7 -12 -7 -26 0 -14 8 -19 7 -19 -1 0 -8 -4 -9 -13 0 -8 6 -17 7 -23
1 -5 -5 -15 -5 -23 -1 -14 9 -14 -9 -6 1096 2 275 5 616 6 758 l1 257 67 0
c36 0 683 2 1436 3 l1370 2 3 688 2 687 -47 1 c-27 0 -674 0 -1439 0 l-1391 1
0 844 c0 463 4 841 9 838 4 -3 8 -1 8 5 0 6 8 7 17 4 10 -4 33 -6 53 -5 67 3
363 1 370 -3 3 -2 12 0 20 5 7 4 24 4 37 -1 15 -5 23 -5 23 2 0 6 5 7 11 4 14
-10 109 -12 109 -3 0 4 8 4 17 1 10 -4 33 -6 53 -5 70 4 254 1 262 -4 4 -3 8
0 8 6 0 6 5 8 11 5 15 -10 149 -11 149 -2 0 5 5 5 10 2 12 -7 270 -9 277 -1 3
2 16 1 29 -4 16 -6 24 -6 24 1 0 6 5 7 11 4 14 -10 109 -12 109 -3 0 4 8 4 17
1 10 -4 33 -6 53 -5 70 4 254 1 262 -4 4 -3 8 0 8 6 0 6 5 8 11 5 15 -10 149
-11 149 -2 0 5 5 5 10 2 12 -7 270 -9 277 -1 3 2 16 1 29 -4 16 -6 24 -6 24 1
0 6 5 7 11 4 14 -10 109 -12 109 -3 0 4 8 4 17 1 10 -4 33 -6 53 -5 57 3 203
1 210 -3 3 -2 12 0 20 5 7 4 24 4 37 -1 15 -5 23 -5 23 2 0 6 5 7 11 3 15 -9
169 -11 169 -2 0 4 7 5 16 1 9 -3 19 -1 23 5 4 7 7 1363 2 1393 -1 4 -4764 5
-4782 1 -3 -1 -5 -1730 -5 -3842 1 -2112 -2 -3840 -6 -3840 -13 0 -76 91 -108
155 -96 195 -107 315 -112 1263 -1 298 -5 548 -9 554 -4 6 -3 22 2 35 5 12 5
23 1 23 -4 0 -8 21 -8 48 -1 56 -13 187 -19 216 -3 12 -8 46 -11 76 -9 82 -19
145 -24 145 -1 0 -3 14 -5 30 -2 17 -7 41 -11 55 -9 29 -6 21 -23 90 -8 30
-19 61 -25 69 -6 8 -10 17 -9 20 6 13 -38 123 -77 191 -8 14 -15 31 -16 39 -2
8 -6 17 -11 20 -4 3 -21 26 -37 51 -53 82 -131 169 -235 262 -39 35 -160 117
-233 158 -32 17 -58 33 -58 35 0 1 32 19 72 39 63 33 94 53 162 106 52 40 148
147 195 217 44 65 180 325 187 358 1 6 18 46 37 90 53 124 108 290 110 333 0
6 4 12 9 12 4 0 8 11 8 24 0 14 5 37 11 53 10 27 17 59 23 113 2 14 6 34 9 45
10 34 18 90 33 230 10 96 11 452 1 550 -13 133 -15 150 -22 195 -4 25 -9 52
-10 60 -1 8 -6 33 -11 55 -11 55 -11 55 -14 58 -1 1 -3 11 -5 22 -12 63 -48
179 -94 304 -30 81 -147 330 -160 341 -3 3 -15 23 -26 45 -11 22 -23 45 -28
50 -4 6 -40 57 -80 115 -117 170 -221 279 -382 401 -33 25 -77 55 -97 68 -21
12 -38 30 -39 39 0 9 -1 96 -2 192 l-2 175 -412 -1 -413 0 -1 36 c-1 58 -1
145 1 150 1 3 1 10 0 15 -2 10 -3 139 -1 160 1 7 126 10 367 10 321 0 367 2
374 16 5 8 5 21 0 29 -5 8 -6 19 -2 24 9 16 10 46 1 52 -5 2 -4 16 1 30 7 18
7 23 -2 18 -7 -4 -8 -3 -4 5 12 18 15 61 5 67 -5 2 -4 16 1 29 6 17 6 25 -1
25 -6 0 -7 6 -3 12 11 17 12 48 3 54 -5 2 -4 16 1 30 7 18 7 23 -1 18 -8 -4
-8 -1 -1 13 6 10 7 25 3 32 -5 7 -5 28 -1 46 4 18 5 37 1 42 -3 5 -166 8 -361
8 -195 0 -359 1 -365 2 -8 3 -12 229 -6 335 1 16 30 17 379 17 207 0 391 0
408 1 l31 0 0 240 0 240 -656 -2 -656 -3 0 -943 c0 -621 -3 -942 -10 -943 -5
0 -43 -1 -83 -2 -58 -2 -72 1 -73 13 0 8 -1 433 -2 945 l-2 930 -272 0 c-150
0 -274 -2 -274 -5 -1 -3 -3 -183 -4 -400 -2 -217 -3 -400 -4 -406 -1 -16 -257
-16 -270 -1 -16 20 -16 23 -3 40 8 10 9 17 3 21 -7 4 -7 15 -1 30 5 13 6 26 4
29 -7 7 -7 227 0 234 3 3 1 14 -5 24 -5 11 -6 19 -2 19 9 0 8 154 -2 170 -3 5
-3 10 2 10 10 0 9 217 -1 228 -4 4 -151 7 -327 7 l-319 0 0 -942 0 -943 -47
-1 c-56 0 -535 0 -544 1 -4 0 -6 294 -6 653 0 360 -3 658 -6 664 -8 13 -11 13
238 17 121 2 222 4 225 5 3 0 5 122 5 271 0 148 -2 271 -5 271 -12 3 -1461 4
-1470 1z m2534 -1309 c0 -13 3 -23 8 -23 5 0 6 -5 2 -12 -10 -16 -11 -68 -1
-68 5 0 5 -5 1 -12 -10 -16 -11 -68 -1 -68 5 0 5 -5 1 -12 -10 -16 -11 -68 -1
-68 5 0 5 -5 1 -12 -10 -16 -11 -68 -1 -68 5 0 5 -5 1 -12 -10 -16 -11 -68 -1
-68 5 0 5 -5 1 -12 -10 -16 -11 -68 -1 -68 5 0 5 -6 0 -12 -4 -7 -6 -23 -5
-34 2 -14 -3 -23 -15 -25 -15 -4 -203 -3 -253 0 -13 1 -15 38 -14 289 1 158 2
292 3 298 1 7 47 10 139 10 135 -1 137 -1 136 -23z m596 -1966 c19 -3 55 -8
80 -11 25 -3 60 -10 78 -15 18 -5 35 -10 37 -10 15 -2 61 -15 70 -20 6 -3 18
-7 27 -8 23 -4 103 -49 159 -89 57 -41 132 -125 167 -184 14 -25 29 -47 32
-50 10 -8 68 -160 84 -220 28 -106 44 -207 52 -335 7 -106 7 -104 0 -132 -2
-13 -1 -25 3 -27 4 -3 6 -20 5 -38 -11 -156 -15 -205 -19 -218 -2 -8 -6 -32
-10 -54 -3 -21 -7 -42 -10 -46 -2 -3 -7 -21 -10 -39 -10 -56 -57 -164 -102
-232 -35 -55 -116 -139 -168 -177 -43 -31 -95 -61 -95 -55 0 5 -4 2 -9 -5 -4
-7 -14 -14 -22 -16 -8 -1 -24 -8 -37 -14 -12 -7 -27 -10 -32 -7 -6 3 -10 1
-10 -4 0 -6 -3 -10 -7 -9 -5 1 -20 -2 -34 -6 -14 -4 -34 -9 -45 -11 -10 -2
-19 -4 -19 -5 0 -11 -217 -34 -327 -34 -43 -1 -78 -5 -78 -9 0 -4 -8 -4 -17 1
-21 10 -94 9 -111 -2 -7 -4 -12 -3 -12 1 0 11 -101 10 -118 -1 -6 -4 -12 -4
-12 1 0 12 -254 10 -262 -2 -5 -7 -8 -6 -8 0 0 12 -99 13 -118 1 -6 -4 -12 -3
-12 1 0 11 -81 10 -98 -1 -7 -4 -12 -3 -12 1 0 5 -17 9 -37 9 l-38 -1 0 985
c0 645 -3 988 -10 992 -7 5 -7 8 0 8 6 0 9 17 7 41 -3 24 0 44 7 48 14 9 1040
6 1091 -2z m10174 -522 c2 -11 10 -40 17 -65 7 -25 14 -51 15 -59 2 -8 6 -26
10 -40 4 -14 8 -28 9 -31 0 -3 4 -14 8 -25 3 -11 8 -31 11 -45 3 -14 17 -70
31 -125 15 -55 29 -107 31 -115 2 -8 17 -69 35 -135 17 -66 32 -127 34 -135 2
-8 4 -16 5 -17 2 -2 3 -6 4 -10 11 -50 39 -161 43 -173 12 -29 37 -142 35
-152 -1 -5 3 -8 10 -8 6 0 9 -3 6 -6 -3 -3 1 -29 8 -57 8 -29 17 -60 19 -70 2
-10 7 -27 10 -37 3 -10 8 -28 10 -41 2 -12 12 -47 21 -78 9 -31 17 -65 18 -76
1 -11 5 -25 8 -31 4 -6 9 -22 12 -37 4 -15 8 -39 11 -54 3 -14 10 -34 16 -45
5 -10 8 -18 5 -18 -3 0 1 -20 8 -44 8 -25 11 -47 8 -50 -3 -4 -1 -6 4 -6 6 0
11 -10 11 -22 1 -13 15 -75 33 -138 34 -125 38 -140 45 -171 2 -11 7 -29 10
-39 3 -10 8 -28 10 -39 3 -12 7 -29 10 -38 20 -77 57 -221 60 -233 2 -8 8 -27
14 -42 6 -16 8 -28 6 -28 -3 0 1 -15 9 -34 8 -19 12 -36 10 -39 -3 -2 0 -17 7
-33 6 -16 13 -38 15 -49 7 -34 13 -59 24 -100 6 -22 12 -47 14 -55 2 -8 9 -35
16 -60 7 -25 14 -52 15 -60 2 -8 4 -15 5 -15 1 0 3 -8 5 -17 3 -15 -5 -18 -53
-19 -32 0 -241 -2 -467 -4 -225 -2 -548 -5 -717 -6 -169 -2 -309 -1 -312 1 -2
3 4 41 15 85 20 83 25 106 35 152 3 15 7 30 9 33 2 4 7 22 10 41 9 45 13 64
15 64 1 0 3 11 6 25 2 14 15 70 29 125 13 55 38 159 55 230 17 72 33 141 37
155 8 31 4 14 48 205 21 88 38 166 38 173 0 6 3 12 7 12 3 0 6 8 6 18 1 22 5
40 44 197 17 72 33 137 35 145 6 25 56 234 60 253 2 10 6 26 9 35 3 9 7 28 10
42 3 14 7 34 10 45 46 194 57 239 60 258 3 12 5 22 6 22 1 0 3 8 5 19 8 43 27
122 32 136 4 8 6 18 5 22 -1 4 3 20 9 35 6 15 13 42 15 58 2 17 11 57 19 90 9
33 17 69 19 80 3 11 14 57 25 103 11 45 23 95 26 112 3 16 9 39 14 52 5 13 9
28 10 33 0 6 4 26 8 45 l7 35 13 -45 c7 -25 15 -54 17 -65z"/>
</g>
</svg>
